<svg aria-hidden="true" style="position:absolute;width:0;height:0;overflow:hidden" xmlns="http://www.w3.org/2000/svg">
  <defs>
    <symbol id="icon-attachment-2" viewBox="0 0 32 32">
      <path d="m28.1 18.9-15-15c-2.5-2.6-6.6-2.6-9.2-.1s-2.6 6.7 0 9.2l.1.1L6.8 16l1.4-1.4-2.9-2.9c-1.7-1.7-1.7-4.6 0-6.3s4.6-1.8 6.3-.1l15 15c1.8 1.7 1.8 4.6.1 6.3-1.7 1.8-4.6 1.8-6.3.1l-7.5-7.5c-1-1-.9-2.6 0-3.5a2.607 2.607 0 0 1 3.5 0l4.1 4.1 1.4-1.4-4.2-4.2a4.436 4.436 0 0 0-4.887-.817A4.435 4.435 0 0 0 11.4 14.4c-1.6 1.7-1.6 4.4 0 6.2l7.5 7.5c2.5 2.6 6.6 2.6 9.2.1s2.6-6.7 0-9.3c0 0 0 .1 0 0z"/>
    </symbol>
    <symbol id="icon-chevron-down" viewBox="0 0 32 32">
      <path stroke-linejoin="round" stroke-linecap="round" stroke-width="3" d="m8 12 8 8 8-8"/>
    </symbol>
    <symbol id="icon-chevron-left" viewBox="0 0 32 32">
      <path stroke-linejoin="round" stroke-linecap="round" stroke-width="2.4" d="m20 24-8-8 8-8"/>
    </symbol>
    <symbol id="icon-chevron-right" viewBox="0 0 32 32">
      <path stroke-linejoin="round" stroke-linecap="round" stroke-width="2.4" d="m12 8 8 8-8 8"/>
    </symbol>
    <symbol id="icon-chevron-up" viewBox="0 0 32 32">
      <path stroke-linejoin="round" stroke-linecap="round" stroke-width="3" d="m24 20-8-8-8 8"/>
    </symbol>
    <symbol id="icon-close" viewBox="0 0 32 32">
      <path stroke-linejoin="round" stroke-linecap="round" stroke-width="2.909" d="M24 8 8 24M8 8l16 16"/>
    </symbol>
    <symbol id="icon-eye" viewBox="0 0 32 32">
      <path stroke-linejoin="round" stroke-linecap="round" stroke-width="2.08" d="M1.333 16S6.666 5.333 16 5.333 30.667 16 30.667 16 25.334 26.667 16 26.667C6.667 26.667 1.333 16 1.333 16z"/>
      <path stroke-linejoin="round" stroke-linecap="round" stroke-width="2.08" d="M16 20a4 4 0 1 0 0-8 4 4 0 0 0 0 8z"/>
    </symbol>
    <symbol id="icon-eye-off" viewBox="0 0 32 32">
      <path stroke-linejoin="round" stroke-linecap="round" stroke-width="2.08" d="M23.92 23.92A13.43 13.43 0 0 1 16 26.667C6.667 26.667 1.333 16 1.333 16A24.605 24.605 0 0 1 8.08 8.08m5.12-2.427a12.161 12.161 0 0 1 2.8-.32C25.333 5.333 30.667 16 30.667 16a24.646 24.646 0 0 1-2.88 4.253m-8.96-1.426a4.003 4.003 0 0 1-5.755.102 3.994 3.994 0 0 1-.824-4.457c.219-.491.534-.932.927-1.298M1.333 1.333l29.333 29.333"/>
    </symbol>
    <symbol id="icon-Frame-56" viewBox="0 0 32 32">
      <path d="M8 0h16a8 8 0 0 1 8 8v16a8 8 0 0 1-8 8H8a8 8 0 0 1-8-8V8a8 8 0 0 1 8-8z"/>
      <path d="M12 8h8a4 4 0 0 1 4 4v8a4 4 0 0 1-4 4h-8a4 4 0 0 1-4-4v-8a4 4 0 0 1 4-4z"/>
    </symbol>
    <symbol id="icon-gg_check-o" viewBox="0 0 32 32">
      <path d="m15 21.76-5.4-6.081 1.8-2.026 3.601 4.052L22.2 9.6l1.801 2.027-9 10.133z"/>
      <path d="M0 16c0 8.836 7.164 16 16 16s16-7.164 16-16S24.836 0 16 0 0 7.164 0 16zm16 13.091c-1.719 0-3.421-.339-5.01-.996s-3.031-1.622-4.247-2.838A13.094 13.094 0 0 1 3.905 10.99a13.084 13.084 0 0 1 7.085-7.085A13.09 13.09 0 1 1 16 29.09z"/>
    </symbol>
    <symbol id="icon-hourglass-01" viewBox="0 0 32 32">
      <path stroke-linejoin="round" stroke-linecap="round" stroke-width="3.2" d="m16 16-5.697-4.748c-.846-.705-1.27-1.058-1.574-1.49a3.978 3.978 0 0 1-.591-1.263c-.137-.511-.137-1.061-.137-2.163V2.667M16 16l5.697-4.748c.847-.705 1.27-1.058 1.574-1.49.27-.383.47-.811.592-1.263C24 7.988 24 7.438 24 6.336V2.667M16 16l-5.697 4.748c-.846.705-1.27 1.058-1.574 1.49-.27.383-.47.811-.591 1.263-.137.511-.137 1.061-.137 2.163v3.669M16 16l5.697 4.748c.847.705 1.27 1.058 1.574 1.49.27.383.47.811.592 1.263.137.511.137 1.061.137 2.163v3.669M5.333 2.667h21.333M5.333 29.333h21.333"/>
    </symbol>
    <symbol id="icon-log-in" viewBox="0 0 32 32">
      <path stroke-linejoin="round" stroke-linecap="round" stroke-width="2.667" d="M18.667 22.667 25.334 16l-6.667-6.667M25.333 16H6.666"/>
    </symbol>
    <symbol id="icon-Logo" viewBox="0 0 343 32">
      <path d="M0 20.706V0h24.264c3.299 0 6.512 1.051 9.173 3.001a11.704 11.704 0 0 1 3.693 4.503l2.807 6.034a40.83 40.83 0 0 1 4.055-7.536l.139-.204c.463-.679.992-1.31 1.58-1.884l1.196-1.168A8.113 8.113 0 0 1 49.626.991l.103-.04A13.854 13.854 0 0 1 54.776 0h24.283v20.706H0zM0 24.471h79.059V32H0v-7.529zM106.85 27.294h-5.048l-4.777-8.233h-3.558v8.233h-4.676V3.576h9.487c2.191 0 4.055.768 5.591 2.304s2.304 3.388 2.304 5.557c0 1.468-.418 2.835-1.254 4.1a7.894 7.894 0 0 1-3.32 2.812l5.252 8.945zM98.278 7.947h-4.811v7.014h4.811c.881 0 1.638-.339 2.27-1.016.632-.7.949-1.536.949-2.507s-.316-1.796-.949-2.473c-.632-.678-1.389-1.016-2.27-1.016zm16.678 9.555v5.32h9.995v4.472H110.28V3.576h14.502v4.472h-9.826v5.048h8.979v4.405h-8.979zm34.663 9.792h-5.082l-1.423-4.269h-9.453l-1.423 4.269h-5.048l8.301-23.718h5.794l8.335 23.718zm-11.215-18.33-3.253 9.69h6.505l-3.253-9.69zm14.195-5.388h9.419c3.253 0 5.963 1.141 8.132 3.422 2.191 2.259 3.287 5.071 3.287 8.437s-1.096 6.178-3.287 8.437c-2.168 2.281-4.879 3.422-8.132 3.422h-9.419V3.576zm4.676 19.246h4.744c2.056 0 3.727-.678 5.015-2.033 1.288-1.4 1.931-3.185 1.931-5.353 0-2.191-.644-3.964-1.931-5.32-1.288-1.378-2.959-2.067-5.015-2.067h-4.744v14.773zm36.046 4.946c-3.727 0-6.335-1.502-7.826-4.506l4.031-2.304c.745 1.491 2.01 2.236 3.795 2.236 1.22 0 2.135-.282 2.744-.847.632-.587.949-1.4.949-2.44V3.576h4.642v16.331c0 2.485-.779 4.416-2.338 5.794-1.536 1.378-3.535 2.067-5.997 2.067zm33.183-3.557c-2.394 2.372-5.308 3.558-8.742 3.558s-6.347-1.186-8.742-3.558c-2.372-2.417-3.558-5.342-3.558-8.776 0-3.456 1.186-6.37 3.558-8.742 2.394-2.394 5.308-3.592 8.742-3.592s6.347 1.197 8.742 3.592c2.394 2.372 3.592 5.286 3.592 8.742s-1.197 6.381-3.592 8.776zm-14.197-3.185c1.446 1.446 3.264 2.168 5.455 2.168s4.009-.723 5.455-2.168c1.468-1.468 2.202-3.332 2.202-5.591s-.734-4.122-2.202-5.591c-1.468-1.468-3.287-2.202-5.455-2.202s-3.987.734-5.455 2.202-2.202 3.332-2.202 5.591.734 4.122 2.202 5.591zm30.43 6.742c-2.643 0-4.811-.745-6.505-2.236s-2.541-3.49-2.541-5.997V3.576h4.642v15.586c0 1.265.361 2.259 1.084 2.982.745.7 1.852 1.05 3.32 1.05s2.564-.35 3.287-1.05c.745-.723 1.118-1.717 1.118-2.982V3.576h4.676v15.959c0 2.507-.847 4.506-2.541 5.997s-3.874 2.236-6.539 2.236zm32.03-.474h-5.048l-4.777-8.233h-3.558v8.233h-4.676V3.576h9.487c2.191 0 4.055.768 5.591 2.304s2.304 3.388 2.304 5.557c0 1.468-.418 2.835-1.254 4.1a7.894 7.894 0 0 1-3.32 2.812l5.252 8.945zm-8.572-19.347h-4.811v7.014h4.811c.881 0 1.638-.339 2.27-1.016.632-.7.949-1.536.949-2.507s-.316-1.796-.949-2.473c-.632-.678-1.389-1.016-2.27-1.016zm25.726 10.097V3.576h4.676v23.718h-3.558l-10.165-14.502v14.502h-4.676V3.576h3.558l10.165 14.468zm14.428-.542v5.32h9.995v4.472h-14.671V3.576h14.502v4.472h-9.826v5.048h8.979v4.405h-8.979zm27.454-13.926h5.286l-8.132 14.468v9.25h-4.642v-9.25l-8.098-14.468h5.286l5.15 9.894 5.15-9.894z"/>
    </symbol>
    <symbol id="icon-Logo-short" viewBox="0 0 79 32">
      <path d="M0 20.706V0h24.264c3.299 0 6.512 1.051 9.173 3.001a11.704 11.704 0 0 1 3.693 4.503l2.807 6.034a40.83 40.83 0 0 1 4.055-7.536l.139-.204c.463-.679.992-1.31 1.58-1.884l1.196-1.168A8.113 8.113 0 0 1 49.626.991l.103-.04A13.854 13.854 0 0 1 54.776 0h24.283v20.706H0zM0 24.471h79.059V32H0v-7.529z"/>
    </symbol>
    <symbol id="icon-menu-04" viewBox="0 0 32 32">
      <path stroke-linejoin="round" stroke-linecap="round" stroke-width="2.286" d="M4 16h24M4 8h24M12 24h16"/>
    </symbol>
    <symbol id="icon-pajamas_error" viewBox="0 0 32 32">
      <path d="M16 29a13 13 0 1 1 0-25.998A13 13 0 0 1 16 29zm0 3a16.003 16.003 0 0 0 16-16A15.997 15.997 0 0 0 16 0 15.997 15.997 0 0 0 0 16a16.003 16.003 0 0 0 16 16zm2-10a2 2 0 1 1-4.001-.001A2 2 0 0 1 18 22zm-.5-12.5A1.503 1.503 0 0 0 16 8a1.503 1.503 0 0 0-1.5 1.5v7A1.503 1.503 0 0 0 16 18a1.503 1.503 0 0 0 1.5-1.5v-7z"/>
    </symbol>
    <symbol id="icon-pie-chart-02" viewBox="0 0 32 32">
      <path stroke-linejoin="round" stroke-linecap="round" stroke-width="3.2" d="M22.933 18.667c.369 0 .554 0 .704.082a.708.708 0 0 1 .293.324c.067.157.05.324.016.659a10.672 10.672 0 0 1-12.694 9.397 10.66 10.66 0 0 1-8.381-8.381 10.666 10.666 0 0 1 9.397-12.694c.334-.034.502-.05.659.016.13.055.257.17.324.293.082.15.082.334.082.704V17.6c0 .373 0 .56.073.703a.665.665 0 0 0 .291.291c.143.073.329.073.703.073h8.533zM18.667 3.733c0-.369 0-.554.082-.704a.713.713 0 0 1 .324-.293c.157-.067.324-.05.659-.016a10.67 10.67 0 0 1 9.549 9.549c.034.334.05.502-.016.659a.704.704 0 0 1-.293.324c-.15.082-.334.082-.704.082h-8.533c-.373 0-.56 0-.703-.073a.665.665 0 0 1-.291-.291c-.073-.143-.073-.329-.073-.703V3.734z"/>
    </symbol>
    <symbol id="icon-start" viewBox="0 0 32 32">
      <path fill="#e90516" style="fill:var(--color1, #e90516)" d="M28.8 16c0 7.069-5.731 12.8-12.8 12.8S3.2 23.069 3.2 16C3.2 8.931 8.931 3.2 16 3.2S28.8 8.931 28.8 16z"/>
      <path fill="none" stroke="#f9f9f9" style="stroke:var(--color2, #f9f9f9)" stroke-width="1.28" d="M31.36 16c0 8.483-6.877 15.36-15.36 15.36S.64 24.483.64 16 7.517.64 16 .64 31.36 7.517 31.36 16z"/>
    </symbol>
    <symbol id="icon-stop" viewBox="0 0 32 32">
      <path fill="none" stroke="#f9f9f9" style="stroke:var(--color2, #f9f9f9)" stroke-width="1.28" d="M31.36 16c0 8.483-6.877 15.36-15.36 15.36S.64 24.483.64 16 7.517.64 16 .64 31.36 7.517 31.36 16z"/>
      <path fill="#e90516" style="fill:var(--color1, #e90516)" d="M11.52 9.6h8.96c1.06 0 1.92.86 1.92 1.92v8.96c0 1.06-.86 1.92-1.92 1.92h-8.96a1.92 1.92 0 0 1-1.92-1.92v-8.96c0-1.06.86-1.92 1.92-1.92z"/>
    </symbol>
    <symbol id="icon-trash-2" viewBox="0 0 32 32">
      <path stroke-linejoin="round" stroke-linecap="round" stroke-width="2.286" d="M4 8h24M25.333 8v18.667a2.668 2.668 0 0 1-2.667 2.667H9.333a2.668 2.668 0 0 1-2.667-2.667V8m4.001 0V5.333a2.67 2.67 0 0 1 2.667-2.667h5.333a2.668 2.668 0 0 1 2.667 2.667V8M13.333 14.667v8M18.667 14.667v8"/>
    </symbol>
  </defs>
</svg>
